<?xml version="1.0" standalone="no"?>
<!DOCTYPE svg PUBLIC "-//W3C//DTD SVG 20010904//EN"
 "http://www.w3.org/TR/2001/REC-SVG-20010904/DTD/svg10.dtd">
<svg version="1.0" xmlns="http://www.w3.org/2000/svg"
 width="100.000000pt" height="100.000000pt" viewBox="0 0 100.000000 100.000000"
 preserveAspectRatio="xMidYMid meet">

<g transform="translate(0.000000,100.000000) scale(0.100000,-0.100000)"
fill="#FFD700" stroke="none">
<path d="M272 985 c-73 -21 -108 -40 -165 -93 -123 -115 -140 -288 -42 -416
19 -26 35 -52 35 -60 0 -7 -22 -34 -50 -59 -27 -25 -50 -51 -50 -56 0 -37 108
-38 211 -2 l56 19 18 -34 c59 -109 241 -198 366 -178 27 5 60 -1 116 -21 97
-34 190 -43 218 -22 19 15 18 17 -39 77 l-59 61 25 27 c89 98 109 231 52 349
-30 63 -117 145 -178 168 -34 13 -48 25 -62 57 -26 57 -122 142 -191 168 -75
28 -190 35 -261 15z m253 -54 c148 -66 222 -209 179 -348 -14 -45 -31 -71 -74
-114 -74 -75 -141 -100 -270 -103 -69 -2 -111 -9 -153 -25 -32 -12 -78 -24
-103 -28 l-44 -6 39 40 c57 56 61 85 21 126 -56 56 -75 103 -75 187 0 65 4 82
30 129 43 77 123 138 212 161 60 15 184 5 238 -19z"/>
</g>
</svg>
